<svg width="40" height="40" viewBox="0 0 40 40" fill="none" xmlns="http://www.w3.org/2000/svg">
<path d="M34.9999 20C34.9999 21.9698 34.6119 23.9203 33.8581 25.7402C33.1043 27.5601 31.9994 29.2137 30.6065 30.6066C29.2136 31.9995 27.5601 33.1044 25.7402 33.8582C23.9203 34.612 21.9697 35 19.9999 35C18.0301 35 16.0796 34.612 14.2597 33.8582C12.4398 33.1044 10.7862 31.9995 9.39332 30.6066C8.00044 29.2137 6.89555 27.5601 6.14173 25.7402C5.38791 23.9203 4.99992 21.9698 4.99992 20C4.99992 16.0217 6.58028 12.2064 9.39332 9.39338C12.2064 6.58034 16.0217 4.99998 19.9999 4.99998C23.9782 4.99998 27.7935 6.58034 30.6065 9.39338C33.4196 12.2064 34.9999 16.0217 34.9999 20ZM19.9999 38.3333C30.1249 38.3333 38.3333 30.125 38.3333 20C38.3333 9.87498 30.1249 1.66665 19.9999 1.66665C9.87492 1.66665 1.66659 9.87498 1.66659 20C1.66659 30.125 9.87492 38.3333 19.9999 38.3333ZM29.1666 18.3333L16.5233 18.3333L21.5233 13.3333L19.1666 10.9767L10.1433 20L19.1666 29.0233L21.5233 26.6666L16.5233 21.6666L29.1666 21.6666V18.3333Z" fill="white"/>
</svg>
