<svg width="40" height="40" viewBox="0 0 40 40" fill="none" xmlns="http://www.w3.org/2000/svg">
<path d="M5.00008 20C5.00008 18.0302 5.38807 16.0797 6.14189 14.2598C6.89571 12.4399 8.0006 10.7863 9.39348 9.39342C10.7864 8.00054 12.4399 6.89565 14.2598 6.14183C16.0797 5.38801 18.0303 5.00002 20.0001 5.00002C21.9699 5.00002 23.9204 5.38801 25.7403 6.14183C27.5602 6.89565 29.2138 8.00054 30.6067 9.39342C31.9996 10.7863 33.1045 12.4399 33.8583 14.2598C34.6121 16.0797 35.0001 18.0302 35.0001 20C35.0001 23.9783 33.4197 27.7936 30.6067 30.6066C27.7936 33.4197 23.9783 35 20.0001 35C16.0218 35 12.2065 33.4197 9.39348 30.6066C6.58043 27.7936 5.00008 23.9783 5.00008 20ZM20.0001 1.66669C9.87508 1.66669 1.66675 9.87502 1.66675 20C1.66675 30.125 9.87508 38.3334 20.0001 38.3334C30.1251 38.3334 38.3334 30.125 38.3334 20C38.3334 9.87502 30.1251 1.66669 20.0001 1.66669ZM10.8334 21.6667H23.4767L18.4767 26.6667L20.8334 29.0233L29.8567 20L20.8334 10.9767L18.4767 13.3334L23.4767 18.3334H10.8334V21.6667Z" fill="white"/>
</svg>
