<svg width="40" height="40" viewBox="0 0 40 40" fill="none" xmlns="http://www.w3.org/2000/svg">
<g clip-path="url(#clip0_86_36)">
<path d="M36.25 0.937644H3.75C3.0126 0.93014 2.30233 1.21547 1.77506 1.73103C1.24778 2.24659 0.946566 2.95026 0.9375 3.68764V36.3189C0.948206 37.0552 1.25014 37.7573 1.77724 38.2715C2.30434 38.7857 3.01367 39.0702 3.75 39.0626H36.25C36.9874 39.0685 37.6972 38.7822 38.2242 38.2663C38.7512 37.7504 39.0526 37.0469 39.0625 36.3095V3.67827C39.0493 2.94305 38.7465 2.24273 38.2199 1.72954C37.6932 1.21635 36.9853 0.931763 36.25 0.937644Z" fill="#0076B2"/>
<path d="M6.58135 15.228H12.2407V33.4374H6.58135V15.228ZM9.4126 6.16553C10.0617 6.16553 10.6962 6.35805 11.2359 6.71874C11.7756 7.07942 12.1961 7.59207 12.4444 8.19182C12.6926 8.79157 12.7574 9.45148 12.6306 10.0881C12.5037 10.7247 12.1909 11.3093 11.7317 11.7681C11.2725 12.2268 10.6875 12.5391 10.0508 12.6654C9.41412 12.7916 8.75427 12.7262 8.15475 12.4774C7.55524 12.2285 7.04299 11.8075 6.68282 11.2675C6.32265 10.7275 6.13073 10.0928 6.13135 9.44365C6.13218 8.57395 6.47824 7.74016 7.09351 7.12548C7.70877 6.5108 8.5429 6.16553 9.4126 6.16553ZM15.7907 15.228H21.2157V17.728H21.2907C22.047 16.2968 23.8907 14.7874 26.6438 14.7874C32.3751 14.7749 33.4376 18.5468 33.4376 23.4374V33.4374H27.7782V24.578C27.7782 22.4687 27.7407 19.753 24.8376 19.753C21.9345 19.753 21.4407 22.053 21.4407 24.4405V33.4374H15.7907V15.228Z" fill="white"/>
</g>
<defs>
<clipPath id="clip0_86_36">
<rect width="40" height="40" fill="white"/>
</clipPath>
</defs>
</svg>
