<svg width="193" height="21" viewBox="0 0 193 21" fill="none" xmlns="http://www.w3.org/2000/svg">
<path d="M11.0703 3.38672H3.2627V5.33496H11.0703V7.85449H3.2627V9.83203H11.0703V12.3662H3.2627V16.9805H11.0703V19.5H0.743164V0.823242H11.0703V3.38672ZM25.499 2.90332L23.4336 4.55859C22.8916 3.9873 22.3936 3.57715 21.9395 3.29883C21.5 3.02051 20.8555 2.87402 20.0205 2.87402C19.0977 2.87402 18.3506 3.0791 17.7793 3.50391C17.208 3.91406 16.9297 4.44141 16.9297 5.10059C16.9297 5.67188 17.1787 6.16992 17.6768 6.60938C18.1748 7.03418 19.0244 7.51758 20.2256 8.03027C21.4268 8.54297 22.3643 9.01172 23.0234 9.46582C25.0449 10.7842 25.9531 12.5566 25.9531 14.5195C25.9531 16.0723 25.3818 17.3906 24.2539 18.4893C23.126 19.5879 21.7637 20.1299 20.167 20.1299C17.0469 20.1299 14.5566 18.416 13.2676 15.0029L15.8164 14.2852C16.7393 16.3799 18.1602 17.4346 20.0791 17.4346C21.002 17.4346 21.7783 17.1562 22.3936 16.5996C23.0088 16.043 23.3164 15.3398 23.3164 14.4902C23.3164 13.9775 23.1553 13.4795 22.833 12.9668C22.5107 12.4541 22.1152 12.0293 21.6318 11.6924C21.1484 11.3555 20.3867 10.9893 19.332 10.5645C18.292 10.1396 17.4863 9.74414 16.915 9.39258C16.3584 9.02637 15.875 8.60156 15.4648 8.11816C14.6445 7.12207 14.2783 6.18457 14.2783 5.07129C14.2783 3.73828 14.8203 2.5957 15.8896 1.6582C16.959 0.706055 18.2627 0.237305 19.8008 0.237305C20.8115 0.237305 21.8516 0.457031 22.8916 0.896484C23.9316 1.33594 24.8105 2.00977 25.499 2.90332ZM39.3711 3.38672H34.918V5.48145H39.3711V8.03027H34.918V19.5H32.3984V8.03027H27.96V5.48145H32.3984V3.38672H27.96V0.823242H39.3711V3.38672ZM44.8936 10.5352H53.8145H56.334V19.5H53.8145V12.9229H44.8936V19.5H42.3447V10.5352H44.8936ZM53.8145 8.01562H44.8936H42.3447V0.823242H44.8936V5.61328H53.8145V0.823242H56.334V8.01562H53.8145ZM70.5137 3.38672H62.7061V5.33496H70.5137V7.85449H62.7061V9.83203H70.5137V12.3662H62.7061V16.9805H70.5137V19.5H60.1865V0.823242H70.5137V3.38672ZM79.7275 11.5166L85.1621 19.5H82.2471L77.0615 11.8096H76.4902V19.5H73.9414V9.58301H76.4902C80.2549 9.6709 82.1299 8.57227 82.1299 6.31641C82.1299 5.54004 81.9102 4.89551 81.4707 4.39746C81.0312 3.88477 80.4453 3.54785 79.7129 3.37207C78.9805 3.16699 77.9111 3.0791 76.4902 3.0791V3.09375H73.9414V0.823242H77.9844C79.9912 0.823242 81.6318 1.32129 82.8916 2.33203C84.166 3.32812 84.7959 4.61719 84.7959 6.16992C84.7959 7.42969 84.3857 8.54297 83.5654 9.49512C82.7451 10.4326 81.4707 11.1211 79.7275 11.5166ZM96.8955 10.7695V8.85059H103.883V1.83398H105.802V8.85059H112.862V10.7695H105.802V17.7275H103.883V10.7695H96.8955ZM132.184 14.0068L138.16 0.120117L144.166 13.8896L149.806 0.867188H152.442L144.166 20.0713L138.16 6.27246L132.154 20.0713L123.878 0.867188H126.515L132.184 14.0068ZM159.986 0.120117L168.805 19.5H151.256L159.986 0.120117ZM154.874 17.3613H165.172L159.986 5.96484L154.874 17.3613ZM180.128 14.8711H174.049V16.9805H180.128V19.5H171.529V0.823242H174.049V12.3516H180.128V14.8711ZM192.828 3.38672H185.021V5.33496H192.828V7.85449H185.021V9.83203H192.828V12.3662H185.021V16.9805H192.828V19.5H182.501V0.823242H192.828V3.38672Z" fill="white"/>
</svg>
