<svg width="38" height="38" viewBox="0 0 38 38" fill="none" xmlns="http://www.w3.org/2000/svg">
<path d="M34.0157 0H1.99155C0.916114 0 0 0.916116 0 2.03139V5.65601C0 6.77127 0.916114 7.68739 1.99155 7.68739H34.0157C35.131 7.68739 36.0073 6.77127 36.0471 5.65601V2.07121C36.0471 0.916113 35.131 0 34.0157 0ZM34.0157 20.1147H1.99155C1.47375 20.1147 0.955945 20.3138 0.597466 20.7121C0.199155 21.1105 0 21.5884 0 22.1461V25.7707C0 26.8859 0.916114 27.8021 1.99155 27.8021H34.0157C35.131 27.8021 36.0073 26.9258 36.0471 25.7707V22.1461C36.0073 20.991 35.131 20.1147 34.0157 20.1147ZM20.035 30.1521H1.99155C1.47375 30.1521 0.955945 30.3512 0.597466 30.7496C0.238986 31.1479 0 31.6258 0 32.1835V35.8081C0 36.9234 0.916114 37.8395 1.99155 37.8395H19.9952C21.1104 37.8395 21.9867 36.9234 21.9867 35.8479V32.2233C22.0266 31.0284 21.1503 30.1123 20.035 30.1521ZM36.0471 10.0374H1.99155C1.47375 10.0374 0.955945 10.2366 0.597466 10.6349C0.238986 11.0332 0 11.5112 0 12.0688V15.6934C0 16.8087 0.916114 17.7248 1.99155 17.7248H36.0073C37.1225 17.7248 37.9988 16.8087 37.9988 15.6934V12.0688C38.0386 10.9535 37.1225 10.0773 36.0471 10.0374Z" fill="#00C3F7"/>
</svg>
